<svg id="visual" viewBox="0 0 900 600" width="900" height="600" xmlns="http://www.w3.org/2000/svg" xmlns:xlink="http://www.w3.org/1999/xlink" version="1.1"><g transform="translate(446.5458937782968 294.3030777645359)"><path d="M133.7 -229.6C176.4 -206.9 216.4 -177.5 243.6 -138.1C270.9 -98.7 285.4 -49.3 282.6 -1.7C279.7 46 259.3 92 231.6 130.5C203.8 169.1 168.7 200.2 128.8 227C89 253.8 44.5 276.4 -0.9 278C-46.3 279.6 -92.7 260.2 -134.4 234.4C-176.1 208.7 -213.2 176.6 -238.4 136.5C-263.5 96.3 -276.8 48.2 -276 0.4C-275.3 -47.3 -260.6 -94.7 -234.2 -132.6C-207.7 -170.4 -169.5 -198.9 -128.5 -222.6C-87.5 -246.2 -43.8 -265.1 0.9 -266.6C45.5 -268.1 91 -252.3 133.7 -229.6" fill="none" stroke="#BB004B" stroke-width="18"></path></g></svg>